<?xml version="1.0" encoding="UTF-8"?>
<svg xmlns="http://www.w3.org/2000/svg" xmlns:xlink="http://www.w3.org/1999/xlink" viewBox="89.8 228.7 1119.4 408.0">
<path fill-rule="evenodd" fill="currentColor" fill-opacity="1" d="M 1022.460938 396.28125 C 1025.15625 397.933594 1028.058594 397.667969 1030.898438 397.417969 C 1043.597656 396.300781 1056.035156 397.3125 1068.054688 401.824219 C 1072.027344 403.316406 1075.589844 402.546875 1078.992188 400.214844 C 1081.863281 398.238281 1083.507812 395.46875 1083.277344 392.09375 C 1083.054688 388.808594 1080.917969 386.675781 1077.828125 385.296875 C 1071.246094 382.359375 1064.34375 382.050781 1057.4375 382.960938 C 1051.617188 383.730469 1045.796875 384.972656 1040.171875 386.644531 C 1035.285156 388.09375 1030.652344 390.402344 1025.9375 392.410156 C 1024.296875 393.113281 1022.707031 394.007812 1022.460938 396.28125 M 1045.511719 405.839844 C 1038.425781 405.902344 1031.441406 406.679688 1024.613281 408.699219 C 1019.019531 410.355469 1014.484375 413.390625 1010.867188 418.0625 C 1005.035156 425.597656 1000.203125 433.785156 995.675781 442.085938 C 985.347656 461.023438 975.964844 480.453125 967.214844 500.179688 C 966.011719 502.894531 964.953125 505.601562 965.070312 508.691406 C 965.226562 512.972656 966.554688 514.433594 970.8125 514.613281 C 975.367188 514.800781 979.382812 513.078125 983.222656 510.976562 C 989.527344 507.519531 995.714844 503.839844 1001.980469 500.3125 C 1019.789062 490.296875 1037.410156 479.964844 1054.265625 468.402344 C 1063.671875 461.953125 1072.890625 455.226562 1082.125 448.523438 C 1086.625 445.253906 1087.816406 441.429688 1086.355469 436.121094 C 1086.21875 435.628906 1086.011719 435.15625 1085.839844 434.667969 C 1082.828125 425.980469 1077.382812 418.851562 1071.175781 412.28125 C 1069.917969 410.953125 1068 410.128906 1066.246094 409.414062 C 1059.613281 406.710938 1052.644531 405.777344 1045.511719 405.839844 M 1053.625 374.75 C 1054.363281 372.777344 1054.859375 371.515625 1055.304688 370.238281 C 1056.726562 366.121094 1058.011719 361.945312 1059.613281 357.898438 C 1060.136719 356.578125 1061.257812 355.113281 1062.484375 354.558594 C 1063.695312 354.007812 1065.589844 354.101562 1066.820312 354.683594 C 1068.277344 355.367188 1067.960938 357.050781 1067.433594 358.472656 C 1066.941406 359.796875 1066.539062 361.152344 1066.105469 362.496094 C 1065.285156 365.0625 1064.410156 367.613281 1063.675781 370.203125 C 1063.242188 371.722656 1063.78125 373.03125 1065.175781 373.832031 C 1066.597656 374.652344 1067.65625 373.734375 1068.574219 372.835938 C 1069.199219 372.214844 1069.753906 371.441406 1070.09375 370.632812 C 1070.839844 368.867188 1071.449219 367.042969 1072.078125 365.234375 C 1074.984375 356.882812 1077.804688 348.503906 1080.8125 340.191406 C 1082.210938 336.335938 1083.972656 332.617188 1085.566406 328.832031 C 1086.449219 326.726562 1087.96875 325.191406 1089.941406 324.128906 C 1092.007812 323.015625 1093.878906 324.117188 1093.742188 326.417969 C 1093.65625 327.796875 1093.378906 329.21875 1092.902344 330.511719 C 1090.089844 338.089844 1086.980469 345.558594 1084.394531 353.207031 C 1082.136719 359.878906 1080.425781 366.730469 1078.488281 373.507812 C 1078.027344 375.113281 1078.203125 376.671875 1079.605469 377.6875 C 1081.214844 378.855469 1083.078125 378.960938 1084.597656 377.597656 C 1085.902344 376.429688 1087.261719 375.105469 1088 373.5625 C 1091.765625 365.703125 1095.03125 357.585938 1099.058594 349.863281 C 1105.101562 338.265625 1111.597656 326.898438 1117.972656 315.472656 C 1120.039062 311.769531 1122.371094 308.21875 1124.5 304.550781 C 1126.300781 301.449219 1125.707031 299.558594 1122.515625 298.035156 C 1121.597656 297.597656 1120.59375 297.308594 1119.601562 297.058594 C 1116.523438 296.289062 1116.066406 294.035156 1115.933594 291.046875 C 1115.84375 289.039062 1117.285156 287.90625 1120.136719 287.3125 C 1121.136719 287.105469 1122.183594 286.863281 1123.175781 286.953125 C 1126.109375 287.222656 1129.042969 287.554688 1131.949219 288.035156 C 1135.96875 288.695312 1139.816406 288.339844 1143.628906 286.84375 C 1153.171875 283.101562 1161.578125 277.445312 1169.851562 271.542969 C 1171.894531 270.085938 1172.933594 267.929688 1172.9375 265.582031 C 1172.941406 260.550781 1168.792969 255.234375 1163.636719 254.160156 C 1159.402344 253.28125 1154.984375 252.792969 1150.664062 252.894531 C 1141.171875 253.117188 1131.6875 253.785156 1122.207031 254.339844 C 1116.195312 254.695312 1110.1875 255.097656 1104.1875 255.605469 C 1098.6875 256.070312 1093.199219 256.433594 1087.714844 255.519531 C 1076.253906 253.609375 1065.550781 249.148438 1054.574219 245.625 C 1051.53125 244.648438 1048.488281 244.5625 1045.5 245.570312 C 1040.929688 247.113281 1038.316406 252.089844 1039.054688 256.90625 C 1039.617188 260.574219 1041.875 262.894531 1044.691406 264.769531 C 1047.894531 266.90625 1051.324219 268.707031 1054.535156 270.832031 C 1056.4375 272.09375 1058.230469 273.574219 1059.84375 275.1875 C 1061.925781 277.273438 1061.691406 279.683594 1059.289062 281.402344 C 1057.839844 282.4375 1056.242188 283.394531 1054.570312 283.953125 C 1052.28125 284.722656 1051.191406 286.164062 1051.054688 288.453125 C 1050.75 293.574219 1050.417969 298.695312 1050.207031 303.820312 C 1049.988281 309.175781 1050.136719 314.527344 1048.207031 319.714844 C 1045.164062 327.882812 1042.179688 336.085938 1039.582031 344.402344 C 1037.019531 352.589844 1034.945312 360.933594 1032.71875 369.222656 C 1032.492188 370.0625 1032.421875 371.109375 1032.730469 371.878906 C 1033.078125 372.730469 1033.867188 373.863281 1034.601562 373.976562 C 1035.527344 374.117188 1037.058594 373.644531 1037.511719 372.921875 C 1038.65625 371.109375 1039.574219 369.070312 1040.167969 367.003906 C 1041.546875 362.195312 1042.832031 357.351562 1043.886719 352.460938 C 1045.570312 344.660156 1047.769531 337.011719 1051.027344 329.742188 C 1052.136719 327.273438 1054.191406 325.113281 1056.183594 323.195312 C 1057.863281 321.574219 1060.117188 322.527344 1060.355469 324.859375 C 1060.550781 326.746094 1060.527344 328.785156 1060.011719 330.585938 C 1057.890625 337.980469 1055.453125 345.285156 1053.320312 352.679688 C 1052.007812 357.234375 1050.84375 361.847656 1049.976562 366.503906 C 1049.425781 369.46875 1050.347656 372.207031 1053.625 374.75 M 1105.722656 447.625 C 1109.445312 457.035156 1113.070312 465.957031 1116.503906 474.949219 C 1121.175781 487.183594 1125.832031 499.425781 1130.253906 511.753906 C 1134.15625 522.632812 1137.238281 533.753906 1138.726562 545.257812 C 1139.023438 547.542969 1139.265625 549.855469 1139.285156 552.15625 C 1139.308594 554.542969 1138.4375 555.472656 1136.292969 555.953125 C 1134.550781 556.347656 1132.597656 555.542969 1131.75 553.863281 C 1131.238281 552.847656 1130.960938 551.691406 1130.703125 550.570312 C 1129.667969 546.070312 1128.585938 541.574219 1127.691406 537.042969 C 1126.074219 528.824219 1123.640625 520.867188 1120.472656 513.125 C 1116.875 504.332031 1113.320312 495.519531 1109.621094 486.769531 C 1108.4375 483.980469 1106.847656 481.363281 1105.402344 478.589844 C 1103.136719 479.492188 1102.605469 480.996094 1102.167969 482.636719 C 1101.738281 484.246094 1101.191406 485.828125 1100.660156 487.410156 C 1098.761719 493.078125 1094.601562 496.496094 1089.3125 498.78125 C 1089.074219 498.882812 1088.851562 499.042969 1088.605469 499.089844 C 1086.578125 499.476562 1084.476562 500.015625 1082.824219 498.226562 C 1081.765625 497.085938 1082.1875 494.785156 1084.261719 492.761719 C 1087.011719 490.085938 1090.082031 487.730469 1093.003906 485.230469 C 1094.414062 484.023438 1095.808594 482.792969 1096.917969 480.867188 C 1095.296875 480.867188 1093.675781 480.875 1092.054688 480.867188 C 1091.023438 480.863281 1089.988281 480.886719 1088.964844 480.808594 C 1087.097656 480.664062 1085.496094 479.667969 1085.453125 477.859375 C 1085.421875 476.539062 1086.246094 474.792969 1087.277344 473.957031 C 1088.480469 472.980469 1090.285156 472.574219 1091.894531 472.300781 C 1093.652344 472 1095.496094 472.238281 1097.28125 472.046875 C 1098.613281 471.902344 1099.910156 471.441406 1101.34375 471.09375 C 1100.15625 465.160156 1097.242188 460.5625 1093.980469 455.703125 C 1092.4375 456.675781 1091.054688 457.523438 1089.699219 458.410156 C 1078.203125 465.9375 1066.585938 473.277344 1055.257812 481.042969 C 1038.386719 492.605469 1021.308594 503.835938 1003.269531 513.472656 C 990.332031 520.386719 976.886719 526.277344 962.40625 529.242188 C 957.660156 530.214844 952.773438 530.554688 947.9375 531.058594 C 938.953125 531.988281 929.96875 531.828125 921 530.867188 C 910.054688 529.695312 899.824219 526.414062 891.152344 519.503906 C 883.074219 513.0625 878.632812 504.371094 877.179688 494.136719 C 874.84375 477.65625 878.65625 462.917969 888.964844 449.703125 C 894.152344 443.058594 900.820312 438.480469 907.652344 433.875 C 913.847656 429.695312 920.652344 428.597656 927.832031 428.804688 C 934.820312 429.007812 939.160156 432.140625 940.871094 438.148438 C 941.359375 439.851562 941.78125 441.648438 941.785156 443.402344 C 941.796875 448.15625 941.523438 452.917969 939.007812 457.171875 C 936.34375 461.6875 932.503906 464.378906 927.101562 464.355469 C 923.164062 464.335938 920.640625 461.820312 920.4375 457.914062 C 920.265625 454.636719 921.160156 451.5625 922.070312 448.476562 C 922.671875 446.449219 923.585938 444.433594 923.105469 441.945312 C 922.226562 442.15625 921.546875 442.148438 921.074219 442.457031 C 908.628906 450.503906 898.976562 460.824219 894.699219 475.398438 C 889.902344 491.742188 896.121094 507.226562 911.566406 515.476562 C 913.15625 516.328125 914.714844 517.277344 916.386719 517.898438 C 926.585938 521.691406 936.53125 522.015625 945.496094 514.835938 C 947.402344 513.308594 948.910156 510.964844 949.910156 508.695312 C 953.167969 501.300781 956.214844 493.804688 959.140625 486.269531 C 964.375 472.800781 970.960938 460.035156 978.519531 447.746094 C 985.703125 436.058594 993.0625 424.472656 999.96875 412.625 C 1004.101562 405.53125 1007.804688 398.152344 1011.164062 390.660156 C 1015.46875 381.054688 1019.320312 371.246094 1023.203125 361.457031 C 1026.609375 352.875 1029.941406 344.253906 1033.03125 335.554688 C 1036.617188 325.464844 1038.808594 315.085938 1038.835938 304.289062 C 1038.855469 297.195312 1038.636719 290.136719 1037.117188 283.195312 C 1036.628906 280.96875 1035.785156 278.785156 1034.832031 276.707031 C 1031.832031 270.164062 1028.617188 263.671875 1027.742188 256.429688 C 1026.394531 245.300781 1030.015625 238.625 1042.199219 235.875 C 1046.292969 234.953125 1050.613281 234.910156 1054.839844 234.761719 C 1060.664062 234.558594 1065.933594 236.585938 1070.933594 239.398438 C 1076.539062 242.550781 1082.074219 245.855469 1088.613281 246.777344 C 1089.246094 246.867188 1089.875 247.078125 1090.503906 247.066406 C 1102.070312 246.828125 1113.683594 247.136719 1125.1875 246.152344 C 1137.386719 245.105469 1149.566406 244.6875 1161.78125 244.8125 C 1165.363281 244.847656 1168.96875 245.214844 1172.511719 245.777344 C 1177.921875 246.632812 1181.179688 250.574219 1183.980469 254.777344 C 1186.28125 258.234375 1187.464844 262.242188 1187.730469 266.390625 C 1188.042969 271.238281 1186.390625 274.878906 1181.757812 277.464844 C 1173.6875 281.976562 1166.035156 287.234375 1158.042969 291.898438 C 1149.691406 296.769531 1141.964844 302.519531 1134.804688 308.898438 C 1130.652344 312.597656 1127.246094 317.285156 1124.105469 321.9375 C 1117.335938 331.972656 1112.03125 342.851562 1107.59375 354.09375 C 1103.683594 363.996094 1100.367188 374.132812 1096.679688 384.128906 C 1094.234375 390.753906 1091.742188 397.367188 1088.972656 403.855469 C 1088.046875 406.035156 1087.820312 408.066406 1088.324219 410.195312 C 1090.070312 417.554688 1093.378906 424.179688 1098.183594 430.019531 C 1100.566406 432.921875 1102.175781 433.039062 1105.476562 431.347656 C 1115.566406 426.1875 1125.226562 420.277344 1134.210938 413.421875 C 1144.214844 405.789062 1153.960938 397.820312 1162.550781 388.496094 C 1170.066406 380.34375 1177.035156 371.878906 1182.175781 362.011719 C 1184.699219 357.167969 1186.46875 352.070312 1186.65625 346.59375 C 1186.992188 336.667969 1179.425781 326.039062 1168.832031 323.101562 C 1164.652344 321.941406 1160.339844 321.125 1156.035156 320.589844 C 1153.570312 320.285156 1150.933594 320.585938 1148.480469 321.113281 C 1145.214844 321.820312 1143.863281 324.265625 1144.730469 327.542969 C 1145.21875 329.386719 1146.140625 331.121094 1146.9375 332.871094 C 1147.199219 333.445312 1147.726562 333.890625 1148.042969 334.449219 C 1150.664062 339.089844 1149.585938 341.394531 1144.296875 342.628906 C 1141.117188 343.371094 1138.148438 343.625 1134.960938 342.058594 C 1131.976562 340.59375 1130.355469 338.507812 1129.714844 335.4375 C 1128.238281 328.328125 1128.429688 321.488281 1134.054688 316.070312 C 1138.332031 311.953125 1143.625 309.515625 1149.550781 308.992188 C 1161.171875 307.957031 1171.910156 310.847656 1181.914062 316.773438 C 1186.472656 319.472656 1190.726562 322.578125 1194.316406 326.445312 C 1201.671875 334.363281 1203.675781 343.707031 1200.410156 353.921875 C 1198.460938 360.007812 1195.886719 365.90625 1193.425781 371.820312 C 1188.476562 383.726562 1179.980469 392.871094 1170.558594 401.394531 C 1158.808594 412.019531 1146.191406 421.484375 1133.082031 430.328125 C 1125.957031 435.136719 1118.675781 439.722656 1111.4375 444.363281 C 1109.726562 445.464844 1107.898438 446.390625 1105.722656 447.625 "/>
<path fill-rule="evenodd" fill="currentColor" fill-opacity="1" d="M 131.6875 487.941406 C 133.238281 487.257812 134.382812 486.695312 135.566406 486.242188 C 144.414062 482.863281 153.273438 479.511719 162.121094 476.136719 C 169.554688 473.300781 176.871094 470.207031 183.472656 465.6875 C 190.71875 460.722656 195.972656 454.207031 197.804688 445.5 C 198.449219 442.453125 198.671875 438.925781 197.777344 436.023438 C 195.636719 429.082031 191.273438 423.671875 184.601562 420.257812 C 178.371094 417.074219 171.710938 415.4375 164.910156 414.132812 C 157 412.613281 149.121094 410.933594 141.226562 409.3125 C 140.398438 409.144531 139.578125 408.925781 138.472656 408.660156 C 137.75 415.03125 137.09375 421.101562 136.363281 427.160156 C 135.242188 436.449219 133.984375 445.722656 132.9375 455.023438 C 131.722656 465.828125 130.855469 476.660156 131.6875 487.941406 M 280.265625 548.34375 C 281.941406 544.75 283.65625 541.167969 285.285156 537.546875 C 286.992188 533.757812 290.441406 533.21875 293.03125 536.398438 C 296.6875 540.886719 296.542969 547.796875 292.722656 552.773438 C 289.992188 556.335938 286.28125 558.628906 282.480469 560.800781 C 280.027344 562.203125 277.589844 563.660156 275.027344 564.835938 C 273.679688 565.453125 272.070312 565.839844 270.59375 565.796875 C 263.789062 565.589844 256.972656 565.375 250.1875 564.828125 C 240.683594 564.058594 231.414062 561.855469 222.289062 559.226562 C 216.394531 557.53125 210.691406 555.152344 204.945312 552.96875 C 182.84375 544.570312 162.34375 532.8125 141.199219 522.414062 C 138.449219 521.058594 135.664062 519.777344 132.566406 518.304688 C 129.976562 521.316406 128.84375 525.03125 127.253906 528.449219 C 125.144531 532.980469 123.457031 537.707031 121.273438 542.199219 C 118.828125 547.21875 115.554688 551.734375 110.492188 554.398438 C 108.046875 555.683594 105.222656 556.269531 102.542969 557.070312 C 101.984375 557.234375 101.238281 557.074219 100.671875 556.835938 C 96.332031 555.023438 95.105469 547.460938 98.789062 544.496094 C 100.871094 542.824219 103.292969 541.574219 105.589844 540.175781 C 109.296875 537.917969 110.28125 535.871094 109.675781 531.578125 C 109.589844 530.949219 109.484375 530.300781 109.550781 529.675781 C 110.882812 516.738281 110.976562 503.761719 110.894531 490.773438 C 110.820312 479.453125 110.589844 468.117188 111.074219 456.816406 C 111.671875 442.945312 113.066406 429.117188 116.761719 415.648438 C 117.707031 412.195312 118.800781 408.773438 119.949219 405.378906 C 120.464844 403.847656 120.535156 402.609375 119.769531 401.023438 C 117.734375 396.824219 118.402344 394.753906 122.210938 391.832031 C 124.339844 390.203125 126.359375 388.386719 128.652344 387.035156 C 132.230469 384.929688 136.285156 384.832031 140.195312 385.667969 C 143.429688 386.359375 146.714844 387.355469 149.621094 388.890625 C 154.054688 391.238281 158.832031 391.078125 163.507812 391.628906 C 180.652344 393.65625 194.953125 401.003906 205.652344 414.597656 C 211.859375 422.484375 216 431.441406 215.898438 441.800781 C 215.777344 453.863281 210.570312 463.511719 201.605469 471.34375 C 194.390625 477.644531 186.007812 482 177.511719 486.234375 C 169.597656 490.179688 161.679688 494.144531 154.574219 499.492188 C 153.777344 500.09375 153.0625 500.800781 152.03125 501.699219 C 157.226562 505.082031 162.074219 508.378906 167.058594 511.457031 C 175.6875 516.785156 184.355469 522.050781 193.089844 527.203125 C 204.058594 533.667969 215.632812 538.894531 227.632812 543.089844 C 232.210938 544.691406 237.050781 545.597656 241.828125 546.558594 C 247.347656 547.664062 252.902344 548.734375 258.492188 549.339844 C 262.429688 549.765625 266.457031 549.496094 270.433594 549.324219 C 273.511719 549.191406 276.570312 548.726562 280.265625 548.34375 "/>
<path fill-rule="evenodd" fill="currentColor" fill-opacity="1" d="M 332.507812 524.175781 C 337.074219 521.128906 341.167969 518.738281 344.875 515.851562 C 353.570312 509.074219 362.101562 502.074219 370.65625 495.117188 C 372.332031 493.753906 373.804688 492.140625 375.40625 490.679688 C 380.335938 486.183594 385.28125 481.707031 390.21875 477.21875 C 395.917969 472.039062 401.5625 466.800781 407.328125 461.695312 C 411.445312 458.046875 415.71875 454.574219 419.8125 451.117188 C 418.644531 446.203125 416.777344 444.714844 412.226562 445.09375 C 410.449219 445.242188 408.609375 445.492188 406.953125 446.121094 C 401.203125 448.289062 395.523438 450.648438 389.816406 452.929688 C 381.117188 456.40625 373.746094 461.785156 366.964844 468.199219 C 361.714844 473.164062 356.890625 478.433594 352.363281 484.050781 C 344.628906 493.648438 338.894531 504.3125 334.730469 515.851562 C 333.839844 518.320312 333.359375 520.9375 332.507812 524.175781 M 419.949219 559.230469 C 423.898438 560.105469 426.800781 557.824219 429.757812 555.882812 C 433.179688 553.640625 436.394531 551.054688 439.929688 549.027344 C 441.988281 547.847656 444.496094 547.433594 446.820312 546.746094 C 448.5 546.25 449.394531 547 449.972656 548.640625 C 451.570312 553.203125 450.109375 557.203125 447.863281 561.050781 C 444.132812 567.445312 438.121094 571.503906 432.449219 575.886719 C 430.222656 577.609375 427.777344 579.039062 425.507812 580.710938 C 423.429688 582.246094 421.125 582.890625 418.617188 582.640625 C 410.90625 581.875 404.746094 578.332031 400.265625 572 C 399.722656 571.230469 399.382812 570.101562 399.425781 569.164062 C 399.847656 559.941406 400.035156 550.699219 401.984375 541.613281 C 402.410156 539.613281 402.417969 537.523438 402.8125 535.515625 C 404.886719 524.960938 406.996094 514.414062 409.148438 503.878906 C 410.632812 496.601562 412.207031 489.34375 413.71875 482.074219 C 413.785156 481.75 413.582031 481.371094 413.441406 480.71875 C 410.984375 482.367188 408.5 483.722656 406.386719 485.511719 C 398.839844 491.894531 391.351562 498.347656 383.972656 504.914062 C 372.851562 514.808594 362.039062 525.054688 350.722656 534.722656 C 340.542969 543.417969 329.265625 550.570312 316.910156 555.898438 C 315.742188 556.402344 314.527344 556.792969 313.265625 557.257812 C 311.160156 555.265625 310.820312 552.660156 310.339844 550.210938 C 309.039062 543.535156 309.484375 536.820312 311.382812 530.386719 C 313.804688 522.167969 316.800781 514.113281 319.667969 506.027344 C 321.9375 499.625 324.25 493.226562 326.8125 486.933594 C 328.242188 483.414062 329.875 479.875 332.019531 476.761719 C 337.328125 469.046875 343.214844 461.785156 350.328125 455.589844 C 363.640625 443.992188 378.492188 435.148438 395.488281 430.105469 C 404.777344 427.347656 414.207031 426.410156 423.9375 426.988281 C 434.640625 427.628906 444.605469 430.246094 453.988281 435.382812 C 455.328125 436.117188 456.085938 436.875 456.644531 438.324219 C 459.148438 444.808594 458.417969 449.375 453.5 454.074219 C 451.007812 456.457031 448.222656 458.539062 445.5 460.671875 C 442.359375 463.132812 440.554688 466.207031 439.390625 470.121094 C 437.53125 476.367188 434.949219 482.410156 432.476562 488.460938 C 427.902344 499.640625 423.820312 511.003906 421.179688 522.78125 C 418.582031 534.371094 417.707031 546.15625 419.535156 558.003906 C 419.59375 558.371094 419.773438 558.71875 419.949219 559.230469 "/>
<path fill-rule="evenodd" fill="currentColor" fill-opacity="1" d="M 769.292969 459.050781 C 768.503906 454.453125 766.121094 452.457031 761.917969 453.175781 C 758.398438 453.78125 754.890625 454.644531 751.492188 455.742188 C 747.960938 456.882812 744.515625 458.339844 741.117188 459.855469 C 737.023438 461.679688 732.695312 463.238281 729.054688 465.757812 C 723.789062 469.390625 718.902344 473.613281 714.125 477.894531 C 707.59375 483.742188 702.296875 490.660156 697.300781 497.878906 C 690.882812 507.148438 686.046875 517.097656 682.746094 527.835938 C 682.40625 528.941406 682.265625 530.109375 682.03125 531.246094 C 682.277344 531.378906 682.523438 531.511719 682.773438 531.644531 C 687.964844 527.910156 693.265625 524.3125 698.320312 520.398438 C 705.632812 514.742188 712.96875 509.085938 719.929688 503.015625 C 730.957031 493.398438 741.664062 483.417969 752.542969 473.632812 C 755.882812 470.628906 759.363281 467.773438 762.761719 464.828125 C 764.984375 462.898438 767.171875 460.929688 769.292969 459.050781 M 769.152344 567.136719 C 773.9375 567.769531 777.074219 565.496094 780.257812 563.296875 C 783.421875 561.109375 786.539062 558.832031 789.855469 556.898438 C 792.652344 555.269531 795.789062 554.667969 799.121094 555.308594 C 801.328125 560.691406 800.101562 565.464844 797.132812 569.957031 C 793.453125 575.523438 788.296875 579.574219 782.953125 583.394531 C 780.347656 585.257812 777.539062 586.847656 775.035156 588.832031 C 773.277344 590.226562 771.414062 590.671875 769.320312 590.628906 C 760.488281 590.441406 753.980469 586.144531 749.183594 579.003906 C 748.695312 578.273438 748.847656 577.042969 748.871094 576.046875 C 749.117188 565.636719 750.230469 555.304688 752.089844 545.074219 C 754.453125 532.082031 757.089844 519.136719 759.675781 506.183594 C 760.820312 500.441406 762.125 494.730469 763.492188 488.386719 C 761.269531 489.796875 759.453125 490.726562 757.902344 491.972656 C 751.394531 497.203125 744.800781 502.347656 738.542969 507.867188 C 731.042969 514.488281 723.980469 521.605469 716.492188 528.242188 C 708.636719 535.207031 701.0625 542.53125 692.230469 548.320312 C 686.113281 552.328125 680.082031 556.476562 673.804688 560.214844 C 670.34375 562.273438 666.457031 563.617188 662.734375 565.296875 C 659.378906 559.46875 658.777344 553.644531 659.289062 547.699219 C 660.117188 538.03125 663.394531 529.003906 666.804688 520.003906 C 670.070312 511.378906 672.941406 502.605469 676.203125 493.980469 C 677.277344 491.136719 678.851562 488.441406 680.507812 485.878906 C 682.167969 483.308594 684.488281 481.152344 686.039062 478.527344 C 689.175781 473.210938 693.851562 469.339844 698.113281 465.089844 C 710.34375 452.894531 724.949219 444.671875 741.304688 439.242188 C 753.238281 435.28125 765.414062 434.1875 777.796875 435.300781 C 787.078125 436.136719 795.855469 439.046875 803.953125 443.695312 C 805.226562 444.429688 806.257812 446.171875 806.703125 447.660156 C 808.910156 455.039062 807.015625 459.597656 800.199219 464.933594 C 798.078125 466.59375 795.976562 468.277344 793.800781 469.859375 C 791.488281 471.546875 790.402344 473.992188 789.457031 476.527344 C 787.167969 482.652344 784.894531 488.78125 782.671875 494.925781 C 779.359375 504.097656 775.769531 513.183594 772.890625 522.488281 C 769.417969 533.691406 767.59375 545.234375 768.109375 557.03125 C 768.253906 560.339844 768.78125 563.628906 769.152344 567.136719 "/>
<path fill-rule="evenodd" fill="currentColor" fill-opacity="1" d="M 579.332031 434.605469 C 584.886719 435.917969 590.277344 435.925781 595.652344 435.667969 C 600.65625 435.429688 605.652344 435.003906 610.632812 434.480469 C 616.121094 433.902344 621.582031 433.042969 627.070312 432.449219 C 632.171875 431.898438 637.289062 431.398438 642.414062 431.175781 C 644.34375 431.09375 646.4375 429.75 648.238281 431.335938 L 648.238281 439.980469 C 643.859375 442.816406 638.933594 443.84375 634.136719 445.039062 C 621.253906 448.25 608.101562 449.449219 594.859375 449.984375 C 587.804688 450.265625 580.765625 451.066406 573.710938 451.351562 C 571.179688 451.457031 570.125 452.457031 569.390625 454.726562 C 566.625 463.273438 563.617188 471.742188 560.839844 480.285156 C 557.75 489.800781 554.640625 499.3125 551.855469 508.917969 C 547.292969 524.667969 542.734375 540.429688 538.644531 556.308594 C 534.839844 571.085938 531.597656 586.011719 528.210938 600.898438 C 526.679688 607.644531 525.429688 614.457031 523.996094 621.226562 C 522.882812 626.484375 518.570312 629.757812 513.207031 629.523438 C 509.800781 629.375 504.679688 627.605469 501.113281 625.261719 C 521.789062 570.332031 535.726562 513.308594 552.042969 456.605469 C 548.648438 454.917969 545.667969 453.15625 542.488281 451.910156 C 533.007812 448.203125 523.234375 445.605469 512.988281 445.324219 C 504.804688 445.097656 497.246094 447.308594 490.304688 451.652344 C 489.902344 451.902344 489.390625 451.980469 488.933594 452.136719 C 485.792969 443.816406 487.507812 436.09375 494.09375 431.949219 C 496.882812 430.195312 500.578125 429.246094 503.90625 429.125 C 509.773438 428.910156 515.722656 429.265625 521.554688 430.023438 C 529.683594 431.070312 537.730469 432.738281 545.828125 434.070312 C 547.597656 434.359375 549.449219 434.167969 551.210938 434.492188 C 555.582031 435.292969 558.132812 433.105469 560.25 429.640625 C 565.210938 421.523438 569.433594 413.050781 573.019531 404.25 C 577.472656 393.332031 581.652344 382.292969 586.363281 371.488281 C 590.515625 361.96875 595.261719 352.703125 602.09375 344.738281 C 608.3125 337.488281 615.71875 331.863281 625.011719 329.15625 C 631.71875 327.199219 638.566406 326.28125 645.554688 327.464844 C 646.410156 327.609375 647.480469 327.714844 648.019531 328.265625 C 650.710938 331 653.550781 333.664062 655.777344 336.753906 C 658.242188 340.171875 660.171875 343.984375 662.171875 347.710938 C 662.722656 348.734375 663.09375 350.15625 662.851562 351.246094 C 661.9375 355.371094 660.757812 359.4375 659.628906 363.511719 C 659.460938 364.113281 659.121094 364.703125 658.734375 365.199219 C 657.46875 366.832031 655.875 366.726562 655.277344 364.738281 C 654.472656 362.046875 653.59375 359.207031 653.660156 356.457031 C 653.964844 344.21875 643.078125 339.160156 632.867188 341.09375 C 628.3125 341.960938 624.34375 344.09375 621.164062 347.382812 C 611.285156 357.601562 602.820312 368.867188 596.871094 381.851562 C 593.503906 389.199219 589.882812 396.488281 587.285156 404.113281 C 584.230469 413.074219 582.144531 422.371094 579.679688 431.535156 C 579.425781 432.484375 579.449219 433.511719 579.332031 434.605469 "/>
<path fill-rule="evenodd" fill="currentColor" fill-opacity="1" d="M 968.195312 561.507812 C 964.679688 561.113281 960.699219 560.84375 956.796875 560.136719 C 955.296875 559.863281 953.71875 558.851562 952.632812 557.726562 C 950.585938 555.609375 950.769531 553.398438 952.878906 551.285156 C 954.847656 549.308594 957.273438 548.113281 960.058594 547.910156 C 964.792969 547.566406 969.539062 547.421875 974.269531 547.066406 C 981.34375 546.535156 988.304688 545.460938 994.546875 541.773438 C 996.191406 540.800781 997.707031 539.601562 999.238281 538.449219 C 1002.125 536.269531 1005.027344 534.144531 1008.890625 534.195312 C 1011.121094 534.226562 1011.953125 534.855469 1012.179688 537.035156 C 1012.296875 538.152344 1012.125 539.34375 1011.84375 540.445312 C 1010.917969 544.074219 1008.742188 546.84375 1005.800781 549.125 C 997.539062 555.53125 987.898438 558.496094 977.847656 560.398438 C 974.835938 560.96875 971.742188 561.113281 968.195312 561.507812 "/>
<path fill-rule="evenodd" fill="currentColor" fill-opacity="1" d="M 993.964844 611.320312 C 986.023438 611.304688 978.8125 608.960938 972.429688 604.253906 C 968.710938 601.511719 966.273438 597.742188 964.957031 593.304688 C 964.402344 591.4375 963.933594 589.363281 965.605469 587.894531 C 967.265625 586.433594 969.382812 586.335938 971.386719 587.335938 C 974.015625 588.652344 976.65625 589.980469 979.179688 591.492188 C 985.917969 595.53125 993.101562 597.984375 1001.019531 598.144531 C 1002.269531 598.167969 1003.589844 598.421875 1004.738281 598.898438 C 1008.972656 600.667969 1009.535156 604.574219 1006.078125 607.589844 C 1003.503906 609.835938 1001.6875 611.257812 993.964844 611.320312 "/>
<path fill-rule="evenodd" fill="currentColor" fill-opacity="1" d="M 1140.523438 564.785156 C 1140.125 566.085938 1139.566406 567.902344 1139.007812 569.71875 C 1138.457031 571.519531 1137.890625 573.316406 1137.351562 575.121094 C 1136.902344 576.613281 1135.382812 577.613281 1133.816406 577.445312 C 1132.253906 577.28125 1132.195312 576.175781 1132.066406 574.953125 C 1131.734375 571.78125 1131.234375 568.628906 1130.925781 565.457031 C 1130.84375 564.609375 1131.105469 563.691406 1131.371094 562.855469 C 1132.292969 559.933594 1134.003906 558.609375 1136.257812 558.980469 C 1138.558594 559.359375 1140.445312 561.683594 1140.523438 564.785156 "/>
<path fill-rule="evenodd" fill="currentColor" fill-opacity="1" d="M 1011.394531 456.1875 C 1010.675781 458.496094 1010.339844 460.421875 1009.5 462.09375 C 1008.132812 464.804688 1005.789062 466.367188 1002.65625 466.140625 C 999.65625 465.925781 997.296875 464.449219 995.976562 461.699219 C 994.117188 457.820312 994.308594 454.050781 996.96875 450.542969 C 999.722656 446.910156 1005.472656 446.457031 1008.339844 449.976562 C 1009.800781 451.765625 1010.457031 454.210938 1011.394531 456.1875 "/>
<path fill-rule="nonzero" fill="currentColor" fill-opacity="1" d="M 131.332031 295.492188 L 126.578125 295.492188 L 126.578125 308.5 L 131.414062 308.5 C 136.328125 308.5 140.054688 305.515625 140.054688 301.710938 C 140.054688 298.285156 137.28125 295.492188 131.332031 295.492188 M 144.734375 330.832031 C 136.644531 320.046875 133 314.84375 131.015625 314.335938 L 126.578125 314.335938 L 126.578125 330.832031 L 116.980469 330.832031 L 116.980469 289.019531 L 131.097656 289.019531 C 144.65625 289.019531 149.730469 294.414062 149.730469 300.820312 C 149.730469 306.40625 144.972656 310.148438 140.054688 311.796875 L 140.054688 311.859375 C 142.433594 312.9375 147.667969 320.171875 155.679688 330.832031 Z M 144.734375 330.832031 "/>
<path fill-rule="nonzero" fill="currentColor" fill-opacity="1" d="M 161.625 330.832031 L 161.625 289.023438 L 190.726562 289.023438 L 188.113281 295.429688 L 171.222656 295.429688 L 171.222656 306.277344 L 188.113281 306.277344 L 188.113281 312.6875 L 171.222656 312.6875 L 171.222656 324.421875 L 190.726562 324.421875 L 190.726562 330.832031 Z M 161.625 330.832031 "/>
<path fill-rule="nonzero" fill="currentColor" fill-opacity="1" d="M 212.773438 331.464844 C 205.398438 331.464844 200.164062 329.5625 196.675781 327.65625 L 200.5625 322.011719 C 203.417969 323.597656 207.460938 325.183594 212.378906 325.183594 C 216.421875 325.183594 221.019531 323.851562 221.019531 320.363281 C 221.019531 314.398438 208.332031 313.320312 201.988281 307.609375 C 199.925781 305.769531 198.578125 303.359375 198.578125 300.125 C 198.578125 293.90625 204.6875 288.640625 215.628906 288.640625 C 221.179688 288.640625 225.621094 289.71875 228.476562 290.988281 L 228.316406 297.839844 C 224.273438 296.0625 220.386719 294.921875 216.105469 294.921875 C 211.902344 294.921875 208.570312 296.378906 208.570312 299.171875 C 208.570312 306.910156 231.171875 306.46875 231.171875 319.472656 C 231.171875 326.832031 223.082031 331.464844 212.773438 331.464844 "/>
<path fill-rule="nonzero" fill="currentColor" fill-opacity="1" d="M 273.992188 295.429688 L 259.71875 295.429688 L 259.71875 330.832031 L 250.042969 330.832031 L 250.042969 295.429688 L 234.898438 295.429688 L 234.898438 289.023438 L 276.292969 289.023438 Z M 273.992188 295.429688 "/>
<path fill-rule="nonzero" fill="currentColor" fill-opacity="1" d="M 296.429688 304.5 C 295.476562 302.40625 294.84375 300.695312 294.445312 299.300781 L 294.367188 299.300781 C 294.050781 300.757812 293.335938 302.40625 292.464844 304.375 L 287.945312 314.082031 L 300.632812 314.082031 Z M 308.800781 330.832031 L 303.644531 320.363281 L 285.011719 320.363281 L 280.171875 330.832031 L 270.738281 330.832031 L 291.039062 288.832031 L 298.015625 288.832031 L 319.03125 330.832031 Z M 308.800781 330.832031 "/>
<path fill-rule="nonzero" fill="currentColor" fill-opacity="1" d="M 361.6875 326.832031 C 358.042969 329.75 352.648438 331.464844 344.878906 331.464844 C 337.503906 331.464844 332.113281 330.070312 328.621094 327.339844 C 324.894531 324.484375 323.46875 320.109375 323.46875 315.476562 L 323.46875 289.023438 L 333.0625 289.023438 L 333.0625 314.96875 C 333.0625 318.015625 334.09375 320.488281 336.15625 322.328125 C 338.136719 324.042969 341.230469 324.929688 345.035156 324.929688 C 349.476562 324.929688 352.570312 323.980469 354.550781 322.328125 C 356.535156 320.617188 357.328125 318.269531 357.328125 315.351562 L 357.328125 289.023438 L 366.921875 289.023438 L 366.921875 315.097656 C 366.921875 319.855469 365.257812 323.980469 361.6875 326.832031 "/>
<path fill-rule="nonzero" fill="currentColor" fill-opacity="1" d="M 392.0625 295.492188 L 387.304688 295.492188 L 387.304688 308.5 L 392.140625 308.5 C 397.054688 308.5 400.785156 305.515625 400.785156 301.710938 C 400.785156 298.285156 398.007812 295.492188 392.0625 295.492188 M 405.460938 330.832031 C 397.375 320.046875 393.726562 314.84375 391.742188 314.335938 L 387.304688 314.335938 L 387.304688 330.832031 L 377.707031 330.832031 L 377.707031 289.019531 L 391.824219 289.019531 C 405.382812 289.019531 410.457031 294.414062 410.457031 300.820312 C 410.457031 306.40625 405.699219 310.148438 400.785156 311.796875 L 400.785156 311.859375 C 403.164062 312.9375 408.394531 320.171875 416.40625 330.832031 Z M 405.460938 330.832031 "/>
<path fill-rule="nonzero" fill="currentColor" fill-opacity="1" d="M 443.445312 304.5 C 442.496094 302.40625 441.859375 300.695312 441.464844 299.300781 L 441.386719 299.300781 C 441.066406 300.757812 440.355469 302.40625 439.480469 304.375 L 434.960938 314.082031 L 447.648438 314.082031 Z M 455.816406 330.832031 L 450.664062 320.363281 L 432.027344 320.363281 L 427.191406 330.832031 L 417.753906 330.832031 L 438.054688 288.832031 L 445.03125 288.832031 L 466.046875 330.832031 Z M 455.816406 330.832031 "/>
<path fill-rule="nonzero" fill="currentColor" fill-opacity="1" d="M 510.296875 330.832031 L 486.664062 306.339844 C 484.445312 303.996094 482.9375 302.410156 481.511719 300.632812 L 481.351562 300.632812 C 481.511719 302.027344 481.589844 304.25 481.589844 306.214844 L 481.589844 330.832031 L 471.996094 330.832031 L 471.996094 289.023438 L 481.75 289.023438 L 504.507812 312.558594 C 506.964844 315.097656 508.390625 316.683594 509.660156 318.394531 L 509.820312 318.394531 C 509.660156 316.554688 509.660156 314.144531 509.660156 312.304688 L 509.660156 289.023438 L 519.175781 289.023438 L 519.175781 330.832031 Z M 510.296875 330.832031 "/>
<path fill-rule="nonzero" fill="currentColor" fill-opacity="1" d="M 564.773438 295.429688 L 550.5 295.429688 L 550.5 330.832031 L 540.828125 330.832031 L 540.828125 295.429688 L 525.679688 295.429688 L 525.679688 289.023438 L 567.074219 289.023438 Z M 564.773438 295.429688 "/>
<path fill-rule="nonzero" fill="currentColor" fill-opacity="1" d="M 572.546875 330.832031 L 572.546875 289.023438 L 601.648438 289.023438 L 599.03125 295.429688 L 582.140625 295.429688 L 582.140625 306.277344 L 599.03125 306.277344 L 599.03125 312.6875 L 582.140625 312.6875 L 582.140625 324.421875 L 601.648438 324.421875 L 601.648438 330.832031 Z M 572.546875 330.832031 "/>
</svg>
